<?xml version="1.0" encoding="iso-8859-1"?>
<!-- Generator: Adobe Illustrator 19.0.0, SVG Export Plug-In . SVG Version: 6.00 Build 0)  -->
<svg version="1.1" id="Layer_1" xmlns="http://www.w3.org/2000/svg" xmlns:xlink="http://www.w3.org/1999/xlink" x="0px" y="0px"
	 viewBox="0 0 512 512" style="enable-background:new 0 0 512 512;" xml:space="preserve">
<circle style="fill:#FFAD9E;" cx="256" cy="256" r="256"/>
<path style="fill:#FF6262;" d="M120.18,363.196l147.884,148.513C403.846,505.408,512,393.34,512,256
	c0-5.177-0.172-10.314-0.476-15.417l-119.91-119.91L120.18,363.196z"/>
<path style="fill:#5C88AD;" d="M135.613,369.778h240.773c12.06,0,21.837-9.776,21.837-21.837V135.613
	c0-12.059-9.776-21.835-21.837-21.835H135.613c-12.059,0-21.835,9.776-21.835,21.835v212.328
	C113.778,360.001,123.554,369.778,135.613,369.778z"/>
<g>
	<path style="fill:#366695;" d="M376.385,113.778H255.424v256h120.961c12.06,0,21.837-9.776,21.837-21.837V135.614
		C398.222,123.554,388.446,113.778,376.385,113.778z"/>
	<path style="fill:#366695;" d="M376.385,341.333H135.614c-12.06,0-21.837-9.776-21.837-21.837v28.444
		c0,12.06,9.776,21.837,21.837,21.837h240.773c12.06,0,21.837-9.776,21.837-21.837v-28.444
		C398.222,331.557,388.446,341.333,376.385,341.333z"/>
</g>
<path style="fill:#273B7A;" d="M376.385,341.333H255.424v28.444h120.961c12.06,0,21.837-9.776,21.837-21.837v-28.444
	C398.222,331.557,388.446,341.333,376.385,341.333z"/>
<path style="fill:#A5B1B5;" d="M146.963,200.297h218.074c7.854,0,14.222-6.368,14.222-14.222v-2.37
	c0-7.854-6.368-14.222-14.222-14.222H146.963c-7.854,0-14.222,6.368-14.222,14.222v2.37
	C132.741,193.929,139.109,200.297,146.963,200.297z"/>
<path style="fill:#86949B;" d="M365.037,169.482H255.426v30.815h109.611c7.854,0,14.222-6.368,14.222-14.222v-2.37
	C379.259,175.849,372.891,169.482,365.037,169.482z"/>
<path style="fill:#C7D0D3;" d="M334.079,213.333h-30.887c-4.324,0-7.83,3.505-7.83,7.83v7.614c0,4.324,3.505,7.83,7.83,7.83h7.685
	v11.635c0,4.284,3.474,7.758,7.758,7.758s7.758-3.474,7.758-7.758v-11.636h7.685c4.324,0,7.83-3.505,7.83-7.83v-7.614
	C341.907,216.838,338.403,213.333,334.079,213.333z"/>
<path style="fill:#193A51;" d="M341.333,224.108h-45.396c-7.933,0-14.367-6.432-14.367-14.367v-45.394
	c0-7.933,6.432-14.367,14.367-14.367h45.396c7.933,0,14.365,6.432,14.365,14.367v45.396
	C355.699,217.676,349.267,224.108,341.333,224.108z"/>
<path style="fill:#71E2EF;" d="M297.805,325.818h41.66c4.205,0,7.615-3.408,7.615-7.614v-41.66c0-4.205-3.408-7.615-7.614-7.615
	h-41.66c-4.205,0-7.615,3.408-7.615,7.614v41.66C290.19,322.41,293.6,325.818,297.805,325.818z"/>
<circle style="fill:#E03A00;" cx="156.444" cy="355.556" r="6.896"/>
<circle style="fill:#FFC61B;" cx="177.562" cy="355.556" r="6.896"/>
<g>
</g>
<g>
</g>
<g>
</g>
<g>
</g>
<g>
</g>
<g>
</g>
<g>
</g>
<g>
</g>
<g>
</g>
<g>
</g>
<g>
</g>
<g>
</g>
<g>
</g>
<g>
</g>
<g>
</g>
</svg>
